<svg xmlns="http://www.w3.org/2000/svg" xmlns:xlink="http://www.w3.org/1999/xlink">
    <defs>
        <symbol id="icon-location" viewBox="0 0 20 20">
            <path fill="#101828" fill-rule="evenodd" d="M19.771.141A.624.624 0 0 1 20 .625v17.5a.625.625 0 0 1-.503.612l-6.25 1.25a.627.627 0 0 1-.245 0l-6.127-1.225-6.127 1.225A.625.625 0 0 1 0 19.375v-17.5a.625.625 0 0 1 .502-.613l6.25-1.25a.625.625 0 0 1 .245 0l6.128 1.225L19.253.012a.625.625 0 0 1 .518.129ZM12.5 2.387l-5-1v16.225l5 1V2.387Zm1.25 16.225 5-1V1.387l-5 1v16.225Zm-7.5-1V1.387l-5 1v16.225l5-1Z" clip-rule="evenodd"/> 
        </symbol>
        <symbol id="icon-wind" viewBox="0 0 32 32">
            <path fill="#101828" d="M25 4a5 5 0 0 0-5 5 1 1 0 0 1-2 0 7 7 0 1 1 7 7H1a1 1 0 0 1 0-2h24a5 5 0 1 0 0-10ZM11 6a2 2 0 0 0-2 2 1 1 0 0 1-2 0 4 4 0 1 1 4 4H1a1 1 0 0 1 0-2h10a2 2 0 0 0 0-4ZM0 19a1 1 0 0 1 1-1h20.084a6 6 0 1 1-6 6 1 1 0 0 1 2 0 4 4 0 1 0 4-4H1a1 1 0 0 1-1-1Z"/>
        </symbol>
        <symbol id="icon-diagram" viewBox="0 0 32 32">
          <path fill="#101828" fill-rule="evenodd" d="M12 7a3 3 0 0 1 3-3h2a3 3 0 0 1 3 3v2a3 3 0 0 1-3 3v2h11a1 1 0 0 1 1 1v2a1 1 0 0 1-2 0v-1H17v1a1 1 0 0 1-2 0v-1H5v1a1 1 0 1 1-2 0v-2a1 1 0 0 1 1-1h11v-2a3 3 0 0 1-3-3V7Zm5 3a1 1 0 0 0 1-1V7a1 1 0 0 0-1-1h-2a1 1 0 0 0-1 1v2a1 1 0 0 0 1 1h2ZM0 23a3 3 0 0 1 3-3h2a3 3 0 0 1 3 3v2a3 3 0 0 1-3 3H3a3 3 0 0 1-3-3v-2Zm3-1a1 1 0 0 0-1 1v2a1 1 0 0 0 1 1h2a1 1 0 0 0 1-1v-2a1 1 0 0 0-1-1H3Zm9 1a3 3 0 0 1 3-3h2a3 3 0 0 1 3 3v2a3 3 0 0 1-3 3h-2a3 3 0 0 1-3-3v-2Zm3-1a1 1 0 0 0-1 1v2a1 1 0 0 0 1 1h2a1 1 0 0 0 1-1v-2a1 1 0 0 0-1-1h-2Zm9 1a3 3 0 0 1 3-3h2a3 3 0 0 1 3 3v2a3 3 0 0 1-3 3h-2a3 3 0 0 1-3-3v-2Zm3-1a1 1 0 0 0-1 1v2a1 1 0 0 0 1 1h2a1 1 0 0 0 1-1v-2a1 1 0 0 0-1-1h-2Z" clip-rule="evenodd"/>
        </symbol>

        <symbol id="icon-kitchen" viewBox="0 0 20 20" fill="none">
            <path fill-rule="evenodd" clip-rule="evenodd" d="M0.624998 7.5C0.531477 7.50004 0.439157 7.52106 0.354842 7.56152C0.270527 7.60198 0.196366 7.66085 0.137827 7.73378C0.0792885 7.80672 0.0378632 7.89186 0.016605 7.98293C-0.00465315 8.074 -0.00520222 8.16869 0.0149983 8.26L2.08 17.5525C2.23414 18.2466 2.62034 18.8673 3.17485 19.3123C3.72936 19.7573 4.41903 19.9998 5.13 20H12.37C13.081 19.9998 13.7706 19.7573 14.3251 19.3123C14.8797 18.8673 15.2659 18.2466 15.42 17.5525L15.5837 16.815C16.5399 16.9938 17.5281 16.7941 18.3398 16.2581C19.1515 15.722 19.7231 14.8915 19.934 13.9419C20.1449 12.9923 19.9785 11.9979 19.47 11.1686C18.9615 10.3394 18.1507 9.74018 17.2087 9.4975L17.485 8.26C17.5052 8.16869 17.5047 8.074 17.4834 7.98293C17.4621 7.89186 17.4207 7.80672 17.3622 7.73378C17.3036 7.66085 17.2295 7.60198 17.1452 7.56152C17.0608 7.52106 16.9685 7.50004 16.875 7.5H0.624998ZM16.25 15.625C16.1177 15.6251 15.9856 15.6146 15.855 15.5938L16.9387 10.7212C17.5169 10.8887 18.0152 11.259 18.3424 11.7642C18.6695 12.2694 18.8036 12.8756 18.7198 13.4717C18.6361 14.0677 18.3403 14.6135 17.8866 15.0091C17.433 15.4046 16.8519 15.6233 16.25 15.625ZM3.3 17.2812L1.40375 8.75H16.0962L14.2 17.2812C14.1076 17.6977 13.8759 18.0702 13.5432 18.3373C13.2104 18.6043 12.7966 18.7499 12.37 18.75H5.13C4.70338 18.7499 4.28955 18.6043 3.95684 18.3373C3.62413 18.0702 3.39243 17.6977 3.3 17.2812Z" fill="#101828"/>
            <path d="M5.5 1.00005L5.49625 1.00505L5.47875 1.0288C5.3878 1.15395 5.30271 1.28326 5.22375 1.4163C5.15667 1.52295 5.09776 1.63452 5.0475 1.75005C5.015 1.82505 5.005 1.86505 5.00125 1.8788V1.8838C5.01567 1.9943 5.05452 2.1002 5.115 2.1938C5.20875 2.36005 5.3375 2.5338 5.5 2.75005L5.5125 2.76505C5.66 2.96255 5.8375 3.1988 5.975 3.4438C6.115 3.6938 6.25 4.01255 6.25 4.37505C6.25 4.61005 6.16875 4.83505 6.10125 4.99255C6.029 5.16015 5.94461 5.32225 5.84875 5.47755C5.75069 5.64147 5.64516 5.8008 5.5325 5.95505L5.51 5.9863L5.50375 5.9963L5.50125 5.9988C5.40196 6.13158 5.25399 6.21947 5.0899 6.24315C4.9258 6.26682 4.75902 6.22434 4.62625 6.12505C4.49348 6.02576 4.40558 5.87779 4.38191 5.7137C4.35823 5.5496 4.40071 5.38283 4.5 5.25005L4.50375 5.24505L4.52125 5.2213C4.6122 5.09615 4.69729 4.96685 4.77625 4.8338C4.84333 4.72715 4.90224 4.61558 4.9525 4.50005C4.985 4.42505 4.995 4.38505 4.99875 4.3713C4.98544 4.25917 4.94698 4.15149 4.88625 4.0563C4.77022 3.86237 4.64117 3.67653 4.5 3.50005L4.4875 3.48505C4.31862 3.26919 4.16412 3.04245 4.025 2.8063C3.85475 2.52471 3.76003 2.20396 3.75 1.87505C3.75 1.64005 3.83125 1.41505 3.89875 1.25755C3.9725 1.08505 4.06625 0.915052 4.15125 0.772552C4.25055 0.609417 4.35604 0.450135 4.4675 0.295052L4.49875 0.251303C4.59804 0.118529 4.74601 0.0306355 4.9101 0.00695907C5.0742 -0.0167174 5.24098 0.0257621 5.37375 0.125053C5.50652 0.224343 5.59442 0.372311 5.61809 0.536405C5.64177 0.7005 5.59929 0.867279 5.5 1.00005ZM9.25 1.00005L9.24625 1.00505L9.22875 1.0288C9.1378 1.15395 9.05271 1.28326 8.97375 1.4163C8.90667 1.52295 8.84776 1.63452 8.7975 1.75005C8.765 1.82505 8.755 1.86505 8.75125 1.8788V1.8838C8.76567 1.9943 8.80452 2.1002 8.865 2.1938C8.95875 2.36005 9.0875 2.5338 9.25 2.75005L9.2625 2.76505C9.41 2.96255 9.5875 3.1988 9.725 3.4438C9.865 3.6938 10 4.01255 10 4.37505C10 4.61005 9.91875 4.83505 9.85125 4.99255C9.779 5.16015 9.69461 5.32225 9.59875 5.47755C9.50069 5.64147 9.39516 5.8008 9.2825 5.95505L9.26 5.9863L9.25375 5.9963L9.25125 5.9988C9.15196 6.13158 9.00399 6.21947 8.8399 6.24315C8.6758 6.26682 8.50902 6.22434 8.37625 6.12505C8.24348 6.02576 8.15558 5.87779 8.13191 5.7137C8.10823 5.5496 8.15071 5.38283 8.25 5.25005L8.25375 5.24505L8.27125 5.2213C8.3622 5.09615 8.44729 4.96685 8.52625 4.8338C8.59333 4.72715 8.65224 4.61558 8.7025 4.50005C8.735 4.42505 8.745 4.38505 8.74875 4.3713C8.73544 4.25917 8.69698 4.15149 8.63625 4.0563C8.52022 3.86237 8.39117 3.67653 8.25 3.50005L8.2375 3.48505C8.06862 3.26919 7.91412 3.04245 7.775 2.8063C7.60475 2.52471 7.51003 2.20396 7.5 1.87505C7.5 1.64005 7.58125 1.41505 7.64875 1.25755C7.7225 1.08505 7.81625 0.915052 7.90125 0.772552C8.00055 0.609417 8.10604 0.450135 8.2175 0.295052L8.24875 0.251303C8.34804 0.118529 8.49601 0.0306355 8.6601 0.00695906C8.8242 -0.0167174 8.99098 0.0257621 9.12375 0.125052C9.25652 0.224343 9.34442 0.372311 9.36809 0.536405C9.39177 0.7005 9.34929 0.867279 9.25 1.00005ZM13 1.00005L12.9963 1.00505L12.9788 1.0288C12.8878 1.15395 12.8027 1.28326 12.7238 1.4163C12.6567 1.52295 12.5978 1.63452 12.5475 1.75005C12.515 1.82505 12.505 1.86505 12.5013 1.8788V1.8838C12.5157 1.9943 12.5545 2.1002 12.615 2.1938C12.7087 2.36005 12.8375 2.5338 13 2.75005L13.0125 2.76505C13.16 2.96255 13.3375 3.1988 13.475 3.4438C13.615 3.6938 13.75 4.01255 13.75 4.37505C13.75 4.61005 13.6687 4.83505 13.6012 4.99255C13.529 5.16015 13.4446 5.32225 13.3488 5.47755C13.2511 5.64144 13.146 5.80078 13.0338 5.95505L13.01 5.9863L13.0037 5.9963L13.0013 5.9988C12.902 6.13158 12.754 6.21947 12.5899 6.24315C12.4258 6.26682 12.259 6.22434 12.1263 6.12505C11.9935 6.02576 11.9056 5.87779 11.8819 5.7137C11.8582 5.5496 11.9007 5.38283 12 5.25005L12.0037 5.24505L12.0212 5.2213C12.1122 5.09615 12.1973 4.96685 12.2762 4.8338C12.3433 4.72715 12.4022 4.61558 12.4525 4.50005C12.485 4.42505 12.495 4.38505 12.4987 4.3713C12.4854 4.25917 12.447 4.15149 12.3863 4.0563C12.2702 3.86237 12.1412 3.67653 12 3.50005L11.9875 3.48505C11.8186 3.26919 11.6641 3.04245 11.525 2.8063C11.3547 2.52471 11.26 2.20396 11.25 1.87505C11.25 1.64005 11.3313 1.41505 11.3988 1.25755C11.4725 1.08505 11.5663 0.915052 11.6512 0.772552C11.7505 0.609417 11.856 0.450135 11.9675 0.295052L11.9987 0.251303C12.098 0.118529 12.246 0.0306355 12.4101 0.00695906C12.5742 -0.0167174 12.741 0.0257621 12.8737 0.125052C13.0065 0.224343 13.0944 0.372311 13.1181 0.536405C13.1418 0.7005 13.0993 0.867279 13 1.00005Z" fill="#101828"/>
        </symbol>

        <symbol id="icon-tv" viewBox="0 0 32 32">
            <path d="M0 8C0 8 0 4 4 4H28C28 4 32 4 32 8V20C32 20 32 24 28 24H20C20 25.3333 20.1667 26.3333 20.5 27H22C22.2652 27 22.5196 27.1054 22.7071 27.2929C22.8946 27.4804 23 27.7348 23 28C23 28.2652 22.8946 28.5196 22.7071 28.7071C22.5196 28.8946 22.2652 29 22 29H10C9.73478 29 9.48043 28.8946 9.29289 28.7071C9.10536 28.5196 9 28.2652 9 28C9 27.7348 9.10536 27.4804 9.29289 27.2929C9.48043 27.1054 9.73478 27 10 27H11.5C11.8333 26.3333 12 25.3333 12 24H4C4 24 0 24 0 20V8ZM2.796 6.29C2.57644 6.44309 2.4012 6.65145 2.288 6.894C2.11952 7.24697 2.02168 7.62948 2 8.02V20C2 20.65 2.156 21.004 2.29 21.204C2.43 21.412 2.63133 21.5813 2.894 21.712C3.23168 21.8736 3.59663 21.9706 3.97 21.998L4.02 22H28C28.65 22 29.004 21.844 29.204 21.71C29.4236 21.5569 29.5988 21.3486 29.712 21.106C29.8736 20.7683 29.9706 20.4034 29.998 20.03L30 19.98V8C30 7.35 29.844 6.996 29.71 6.796C29.5569 6.57644 29.3486 6.4012 29.106 6.288C28.753 6.11952 28.3705 6.02168 27.98 6H4C3.35 6 2.996 6.156 2.796 6.29Z" fill="#101828"/>
        </symbol>
        <symbol id="icon-bathroom" viewBox="0 0 32 32">
            <path d="M8 29.5C8 29.7967 7.91203 30.0867 7.7472 30.3334C7.58238 30.58 7.34811 30.7723 7.07403 30.8858C6.79994 30.9993 6.49834 31.0291 6.20737 30.9712C5.91639 30.9133 5.64912 30.7704 5.43934 30.5607C5.22956 30.3509 5.0867 30.0836 5.02882 29.7926C4.97094 29.5017 5.00065 29.2001 5.11418 28.926C5.22771 28.6519 5.41997 28.4176 5.66665 28.2528C5.91332 28.088 6.20333 28 6.5 28C6.89783 28 7.27936 28.158 7.56066 28.4393C7.84197 28.7206 8 29.1022 8 29.5ZM10.5 24C10.2033 24 9.91332 24.088 9.66665 24.2528C9.41997 24.4176 9.22771 24.6519 9.11418 24.926C9.00065 25.2001 8.97094 25.5017 9.02882 25.7926C9.0867 26.0836 9.22956 26.3509 9.43934 26.5607C9.64912 26.7704 9.91639 26.9133 10.2074 26.9712C10.4983 27.0291 10.7999 26.9993 11.074 26.8858C11.3481 26.7723 11.5824 26.58 11.7472 26.3334C11.912 26.0867 12 25.7967 12 25.5C12 25.1022 11.842 24.7206 11.5607 24.4393C11.2794 24.158 10.8978 24 10.5 24ZM2.5 24C2.20333 24 1.91332 24.088 1.66665 24.2528C1.41997 24.4176 1.22771 24.6519 1.11418 24.926C1.00065 25.2001 0.970945 25.5017 1.02882 25.7926C1.0867 26.0836 1.22956 26.3509 1.43934 26.5607C1.64912 26.7704 1.91639 26.9133 2.20737 26.9712C2.49834 27.0291 2.79994 26.9993 3.07403 26.8858C3.34811 26.7723 3.58238 26.58 3.74721 26.3334C3.91203 26.0867 4 25.7967 4 25.5C4 25.1022 3.84197 24.7206 3.56066 24.4393C3.27936 24.158 2.89783 24 2.5 24ZM6.5 20C6.20333 20 5.91332 20.088 5.66665 20.2528C5.41997 20.4176 5.22771 20.6519 5.11418 20.926C5.00065 21.2001 4.97094 21.5017 5.02882 21.7926C5.0867 22.0836 5.22956 22.3509 5.43934 22.5607C5.64912 22.7704 5.91639 22.9133 6.20737 22.9712C6.49834 23.0291 6.79994 22.9993 7.07403 22.8858C7.34811 22.7723 7.58238 22.58 7.7472 22.3334C7.91203 22.0867 8 21.7967 8 21.5C8 21.1022 7.84197 20.7206 7.56066 20.4393C7.27936 20.158 6.89783 20 6.5 20ZM32 5C32 5.26522 31.8946 5.51957 31.7071 5.70711C31.5196 5.89464 31.2652 6 31 6H27.4137L23.9325 9.4825L21.225 25.3312C21.1641 25.6933 21.0046 26.0317 20.7642 26.3091C20.5237 26.5866 20.2115 26.7925 19.8617 26.9043C19.512 27.0161 19.1382 27.0295 18.7814 26.943C18.4245 26.8564 18.0984 26.6733 17.8388 26.4137L5.58875 14.1637C5.32875 13.9039 5.14541 13.5774 5.05887 13.2201C4.97233 12.8628 4.98593 12.4886 5.09817 12.1385C5.21042 11.7885 5.41698 11.4761 5.69515 11.2358C5.97333 10.9955 6.31236 10.8365 6.675 10.7763L22.5175 8.0675L26.2925 4.2925C26.3854 4.19967 26.4958 4.12605 26.6171 4.07586C26.7385 4.02568 26.8686 3.9999 27 4H31C31.2652 4 31.5196 4.10536 31.7071 4.29289C31.8946 4.48043 32 4.73478 32 5ZM21.7763 10.2238L7 12.75L19.25 25L21.7763 10.2238Z" fill="#101828"/>
        </symbol>
        <symbol id="icon-" viewBox="0 0 32 32">
        </symbol>
        <symbol id="icon-" viewBox="0 0 32 32">
        </symbol>
        <symbol id="icon-" viewBox="0 0 32 32">
        </symbol>
        <symbol id="icon-" viewBox="0 0 32 32">
        </symbol>
        <symbol id="icon-" viewBox="0 0 32 32">
        </symbol>
        <symbol id="icon-" viewBox="0 0 32 32">
        </symbol>
        <symbol id="icon-" viewBox="0 0 32 32">
        </symbol>
    </defs>
</svg>
