<svg xmlns="http://www.w3.org/2000/svg" xmlns:xlink="http://www.w3.org/1999/xlink">
    <defs>
        <symbol id="icon-heart" viewBox="0 0 32 32">
            <path d="M2.133 11.738c0 5.833 4.919 11.598 12.565 16.516 0.425 0.273 0.946 0.546 1.302 0.546s0.877-0.273 1.302-0.546c7.66-4.918 12.565-10.683 12.565-16.516 0-5.041-3.494-8.538-7.975-8.538-2.617 0-4.659 1.188-5.892 2.992-1.206-1.79-3.261-2.992-5.878-2.992-4.494 0-7.988 3.497-7.988 8.538zM4.956 11.724c0-3.442 2.275-5.778 5.33-5.778 2.466 0 3.85 1.489 4.714 2.787 0.384 0.56 0.644 0.738 1 0.738 0.37 0 0.603-0.191 1-0.738 0.932-1.27 2.261-2.787 4.714-2.787 3.069 0 5.344 2.336 5.344 5.778 0 4.809-5.015 10.136-10.797 13.961-0.123 0.082-0.206 0.137-0.26 0.137s-0.137-0.055-0.247-0.137c-5.782-3.825-10.797-9.153-10.797-13.961z"></path>
        </symbol>
        <symbol id="icon-" viewBox="0 0 32 32">
        </symbol>
    </defs>
</svg>
